<?xml version="1.0" encoding="UTF-8" standalone="no"?>
<svg
   version="1.1"
   width="510.48999"
   height="480.99594"
   id="svg58"
   xml:space="preserve"
   sodipodi:docname="Logo.svg"
   inkscape:version="1.3.2 (091e20e, 2023-11-25, custom)"
   xmlns:inkscape="http://www.inkscape.org/namespaces/inkscape"
   xmlns:sodipodi="http://sodipodi.sourceforge.net/DTD/sodipodi-0.dtd"
   xmlns="http://www.w3.org/2000/svg"
   xmlns:svg="http://www.w3.org/2000/svg"><sodipodi:namedview
     id="namedview1"
     pagecolor="#ffffff"
     bordercolor="#999999"
     borderopacity="1"
     inkscape:showpageshadow="2"
     inkscape:pageopacity="0"
     inkscape:pagecheckerboard="0"
     inkscape:deskcolor="#d1d1d1"
     inkscape:zoom="1.5363955"
     inkscape:cx="255.14264"
     inkscape:cy="240.49797"
     inkscape:window-width="1920"
     inkscape:window-height="974"
     inkscape:window-x="-11"
     inkscape:window-y="-11"
     inkscape:window-maximized="1"
     inkscape:current-layer="svg58" /><defs
     id="defs58" /><g
     id="g178"
     transform="translate(-1109.3369,-144.66386)"><g
       id="g75"
       transform="translate(388,-394)"><rect
         style="fill:#e9923a;fill-opacity:1;stroke-width:1.01334"
         id="rect74"
         width="44.394707"
         height="227.68022"
         x="1075.2212"
         y="71.966499"
         transform="matrix(0.70096778,0.71319294,0.70530208,-0.70890689,0,0)" /><path
         style="fill:#f2f2f2;stroke:none"
         d="m 978.82715,538.66385 1,1 -1,-1 m 8,124 1,1 -1,-1 m 5,38 v 173 l -0.013,42.9989 0.42931,17.82027 h 24.79174 24.7917 V 774.65985 h 1 l 29.4023,40 38.5977,51 h 1 l 43.625,-57 24.375,-34 h 1 v 160 h 51 v -234 l -36,10e-5 c -5.9041,9e-4 0.1541,-0.0148 -18.4112,0.2509 -10.5965,11.67192 -9.5695,10.44933 -20.5617,24.749 -43.9922,62.04967 -28.1048,39.0941 -44.0271,62 -15.854,-18.6186 -30.5024,-40.2255 -45.0647,-60 -5.8506,-7.9446 -6.3428,-7.91438 -21.346,-26.9136 -18.3782,-0.37422 -12.6243,-0.0844 -18.5893,-0.0861 l -36.00005,-3e-4 m -189,14 v 51 h 64 c 11.22524,0 24.13334,-1.6667 34.99734,1.6288 19.1034,5.7948 24.9887,28.8402 10.5052,42.6503 -11.1056,10.5893 -27.3844,8.7209 -41.50254,8.7209 h -91 l 38,39 62.00004,62 61.99996,62 39,37.99995 35.00005,-35.99995 v -1 l -117.00001,-117 c 18.0354,-1.2214 36.2372,-7.1852 49.71796,-19.6558 32.6211,-30.1767 30.3504,-84.1782 -2.745,-112.732 -19.47436,-16.802 -40.79536,-16.8461 -64.97296,-17.7428 -26.00035,-0.9644 -51.97343,-0.8694 -78.00004,-0.8694 m -81.4899,1.02019 0.4899,218.97981 h 51 v -219 z"
         id="path61"
         inkscape:export-filename="path61.svg"
         inkscape:export-xdpi="96"
         inkscape:export-ydpi="96" /><path
         id="path71"
         style="fill:#e9923a;stroke-width:1.00713"
         d="m 747.47139,640.01603 a 26.088175,25.719933 0 0 0 -22.18622,12.24805 26.088175,25.719933 0 0 0 -3.90274,13.47266 v 25.94922 h 52.06103 v -24.36524 -3.97461 a 26.088175,25.719933 0 0 0 -3.75615,-11.08203 26.088175,25.719933 0 0 0 -22.21592,-12.24805 z" /><rect
         style="fill:#e9923a;fill-opacity:1"
         id="rect75"
         width="56.828804"
         height="56.828804"
         x="233.30135"
         y="1103.2523"
         transform="rotate(-45)" /></g></g></svg>
